<?xml version="1.0" encoding="utf-8"?>
<!-- Generator: Adobe Illustrator 22.1.0, SVG Export Plug-In . SVG Version: 6.00 Build 0)  -->
<svg version="1.1" id="Layer_1" xmlns="http://www.w3.org/2000/svg" xmlns:xlink="http://www.w3.org/1999/xlink" x="0px" y="0px"
	 viewBox="0 0 1500 353.8" style="enable-background:new 0 0 1500 353.8;" xml:space="preserve">
<style type="text/css">
	.st0{fill:none;}
	.st1{fill:#FFB317;}
</style>
<g>
	<g>
		<g transform="translate(13.137 127.28) rotate(-90)">
			<g transform="translate(0)">
				<g>
					<path class="st0" d="M-126.1,214.6h10.4l46.1-111.5l45.7,111.5h10.5l-56.4-137L-126.1,214.6z"/>
					<path class="st1" d="M-13.3,214.6l-56.4-137l-56.4,137h10.4l46.1-111.5l45.7,111.5H-13.3 M-6.3,219.3h-7h-10.5H-27l-1.2-2.9
						l-41.4-101l-41.7,101l-1.2,2.9h-3.1H-126h-7l2.7-6.5l56.4-137l4.4-10.6l4.4,10.6l56.4,137L-6.3,219.3z"/>
				</g>
			</g>
		</g>
		<polygon class="st1" points="221.9,114.1 84.9,57.7 78.4,55 78.4,62 78.4,72.4 78.4,75.6 81.3,76.8 182.3,118.5 81.3,159.9 
			78.4,161.1 78.4,164.3 78.4,174.8 78.4,181.8 84.9,179.2 221.9,122.8 232.4,118.4 		"/>
	</g>
	<path d="M302.6,238.4h82.1v11.8h-99.4v-10.3L362,135.8h-74.3v-12h91.9v10.4L302.6,238.4z"/>
	<path d="M511.4,188.3c0,9.5-1.1,18.2-3.2,26c-2.1,7.9-5.3,14.6-9.4,20.3c-4.1,5.6-9.2,10-15.1,13.2s-12.8,4.7-20.4,4.7
		c-9,0-16.8-1.6-23.4-4.8s-12-7.7-16.3-13.4v64.5h-13.9v-175h13l0.7,17.9c4.3-6.3,9.7-11.3,16.2-14.8c6.5-3.6,14.3-5.4,23.4-5.4
		c7.7,0,14.6,1.5,20.6,4.6c6,3,11.1,7.4,15.2,13s7.3,12.4,9.4,20.3c2.1,7.9,3.2,16.8,3.2,26.6L511.4,188.3L511.4,188.3z
		 M497.3,185.8c0-7.3-0.8-14.2-2.3-20.6c-1.5-6.4-3.8-11.9-6.9-16.6c-3.1-4.7-7-8.4-11.7-11c-4.7-2.7-10.3-4-16.7-4
		c-5.1,0-9.5,0.7-13.4,2s-7.3,3.1-10.2,5.3s-5.4,4.8-7.5,7.7s-3.8,6-5.1,9.2v60.6c1.5,3.2,3.3,6.2,5.5,8.9s4.8,5.1,7.8,7.1
		s6.4,3.5,10.2,4.7c3.8,1.1,8.1,1.7,12.8,1.7c6.4,0,11.9-1.3,16.6-4s8.5-6.4,11.6-11.1c3.1-4.7,5.4-10.3,6.9-16.6
		c1.5-6.4,2.3-13.3,2.3-20.7v-2.6H497.3z"/>
	<path d="M556.2,145.2c2.2-3.6,4.7-6.8,7.6-9.8c2.9-2.9,6.1-5.4,9.5-7.5c3.5-2.1,7.2-3.7,11.2-4.8c4-1.1,8.3-1.7,12.8-1.7
		c6.3,0,12,0.9,16.9,2.6c5,1.7,9.2,4.4,12.7,8.2c3.5,3.7,6.1,8.5,7.9,14.4c1.8,5.9,2.7,13,2.7,21.3v82.2h-13.9v-82.3
		c0-6.5-0.7-12-2.1-16.4c-1.4-4.4-3.4-7.9-6-10.5s-5.7-4.5-9.4-5.7c-3.7-1.1-7.8-1.7-12.3-1.7c-5,0-9.5,0.8-13.5,2.5
		s-7.6,3.9-10.7,6.7c-3.1,2.8-5.8,6-8.1,9.6s-4,7.3-5.4,11.2V250h-13.9V70.8h13.9L556.2,145.2L556.2,145.2z"/>
	<path d="M722.5,252.5c-8.3,0-15.8-1.5-22.8-4.6c-6.9-3.1-12.9-7.4-17.9-12.8c-5-5.5-8.9-12-11.7-19.6s-4.2-15.8-4.2-24.9v-5
		c0-9.7,1.5-18.6,4.4-26.5s6.9-14.6,11.9-20.2c5-5.6,10.7-9.9,17.2-12.9c6.5-3,13.4-4.6,20.6-4.6c8,0,15.1,1.4,21.4,4.3
		c6.2,2.9,11.5,6.9,15.7,12s7.5,11.3,9.6,18.3c2.2,7.1,3.3,14.8,3.3,23.2v8.5h-90.2v2.7c0,6.9,1.1,13.5,3.2,19.6
		c2.1,6.1,5.1,11.4,8.9,15.9c3.8,4.5,8.4,8.1,13.7,10.7c5.3,2.6,11.2,3.9,17.6,3.9c7.5,0,14.1-1.4,19.8-4.1
		c5.7-2.7,10.9-7.1,15.6-13.1l8.8,6.7c-2.1,3-4.5,5.9-7.3,8.6c-2.8,2.7-6,5.1-9.6,7.1c-3.7,2-7.8,3.6-12.4,4.8
		C733.3,251.9,728.2,252.5,722.5,252.5z M720,133.4c-5.3,0-10.2,1-14.7,3s-8.5,4.9-12,8.6c-3.5,3.7-6.3,8.2-8.5,13.5
		s-3.7,11.1-4.5,17.5H756v-1.5c-0.2-5.3-1-10.4-2.6-15.4c-1.6-4.9-3.8-9.3-6.8-13.1s-6.7-6.9-11.2-9.2
		C731,134.5,725.9,133.4,720,133.4z"/>
	<path d="M810.5,123.8l0.5,21.6c2.2-3.6,4.7-6.9,7.5-9.8c2.8-3,6-5.5,9.5-7.6c3.5-2.1,7.3-3.7,11.3-4.8c4-1.1,8.3-1.7,12.8-1.7
		c6.3,0,12,0.9,16.9,2.6c5,1.7,9.2,4.4,12.7,8.2c3.5,3.7,6.1,8.5,7.9,14.4c1.8,5.9,2.7,13,2.7,21.3v82.2h-13.9v-82.3
		c0-6.5-0.7-12-2.1-16.4c-1.4-4.4-3.4-7.9-6-10.5s-5.7-4.5-9.4-5.7c-3.7-1.1-7.8-1.7-12.3-1.7c-5,0-9.5,0.8-13.5,2.5
		s-7.6,3.9-10.7,6.7c-3.1,2.8-5.8,6-8.1,9.6s-4,7.3-5.4,11.2v86.5H797V123.8H810.5z"/>
	<g>
		<path d="M937.2,253.2c-3.7,0-6.7-1.1-8.8-3.3s-3.3-4.9-3.3-8.2s1.1-6.1,3.2-8.4c2.2-2.4,5.2-3.6,8.9-3.6s6.7,1.2,8.9,3.5
			s3.3,5.1,3.3,8.4c0,3.3-1.1,6.1-3.3,8.2C943.9,252.2,940.9,253.2,937.2,253.2z M937.2,234.1c-2.5,0-4.4,0.7-5.7,2.2
			c-1.4,1.5-2.1,3.3-2.1,5.5s0.7,3.9,2,5.2s3.2,2,5.8,2s4.5-0.7,5.9-2s2-3,2-5.2s-0.7-4-2.1-5.5
			C941.6,234.8,939.7,234.1,937.2,234.1z"/>
	</g>
	<g>
		<path d="M1032.4,254.6c-9.2,0-17.3-1.7-24.3-5.1c-7-3.4-12.9-8.1-17.6-14c-4.7-5.9-8.3-12.9-10.7-20.8c-2.3-7.8-3.5-16.4-3.5-25.4
			v-4.9c0-9,1.2-17.6,3.5-25.4c2.4-7.9,5.9-14.9,10.6-20.7c4.7-5.9,10.6-10.6,17.6-14s15.1-5.1,24.2-5.1c7,0,13.6,1.1,19.6,3.3
			c6,2.2,11.4,5.4,15.9,9.4c4.5,4.1,8.2,9.1,10.8,14.9c2.7,5.8,4.2,12.3,4.5,19.4l0.1,2.2h-17.7l-0.1-2c-0.3-4.8-1.3-9.2-3.1-13
			c-1.8-3.8-4.2-7.1-7.1-9.7c-2.9-2.7-6.4-4.8-10.3-6.2s-8.2-2.1-12.6-2.1c-6.8,0-12.7,1.3-17.4,3.9c-4.7,2.6-8.6,6.2-11.6,10.7
			s-5.3,9.8-6.6,15.6c-1.4,6-2.1,12.3-2.1,18.8v4.9c0,6.6,0.7,13,2.1,19c1.4,5.9,3.6,11.2,6.6,15.6c2.9,4.4,6.9,8,11.6,10.6
			c4.8,2.6,10.6,3.9,17.5,3.9c4.2,0,8.3-0.6,12.1-1.8c3.8-1.2,7.3-3,10.2-5.3c3-2.3,5.4-5.2,7.3-8.6c1.9-3.4,3-7.3,3.3-11.8l0.1-2
			h17.7l-0.1,2.3c-0.3,6.3-1.9,12.2-4.7,17.5c-2.8,5.3-6.6,9.9-11.2,13.7s-9.9,6.8-15.9,9C1045.4,253.6,1039,254.6,1032.4,254.6z
			 M1032.3,123.6c-8.4,0-16,1.6-22.4,4.7s-11.8,7.4-16.1,12.8c-4.3,5.4-7.6,11.9-9.8,19.3c-2.2,7.4-3.4,15.6-3.4,24.2v4.9
			c0,8.6,1.1,16.8,3.4,24.2c2.2,7.4,5.5,13.9,9.9,19.3c4.3,5.4,9.8,9.7,16.1,12.8c6.4,3.1,13.9,4.6,22.4,4.6c6.1,0,12-1,17.5-3
			s10.4-4.7,14.6-8.2s7.6-7.6,10.1-12.4c2.2-4.1,3.6-8.6,4.1-13.4h-9.2c-0.5,4.3-1.7,8.2-3.7,11.6c-2.2,3.9-5,7.2-8.4,9.9
			c-3.4,2.6-7.3,4.7-11.6,6c-4.3,1.3-8.8,2-13.4,2c-7.6,0-14.1-1.5-19.5-4.5s-9.8-7-13.1-12c-3.3-4.9-5.7-10.6-7.2-17.1
			c-1.5-6.3-2.2-13-2.2-19.9v-4.9c0-6.8,0.7-13.5,2.2-19.8c1.5-6.4,3.9-12.1,7.3-17.1c3.4-5,7.8-9,13.1-12s11.9-4.5,19.4-4.5
			c5,0,9.7,0.8,14.1,2.4c4.4,1.6,8.3,4,11.7,7c3.3,3.1,6.1,6.8,8.1,11.1c1.8,3.7,2.9,8,3.4,12.6h9.2c-0.5-5.7-1.8-10.9-4-15.6
			c-2.4-5.3-5.7-9.8-9.8-13.5c-4.1-3.7-9-6.6-14.5-8.6C1044.9,124.6,1038.8,123.6,1032.3,123.6z"/>
	</g>
	<g>
		<path d="M1157.7,254.6c-8.8,0-17-1.7-24.1-4.9c-7.2-3.3-13.4-7.9-18.5-13.7s-9.1-12.8-11.9-20.9c-2.8-8-4.1-16.8-4.1-26.2V185
			c0-9.4,1.4-18.2,4.1-26.2c2.8-8,6.7-15,11.8-20.9c5.1-5.8,11.3-10.5,18.5-13.8s15.3-5,24-5c8.9,0,17.1,1.7,24.3,5
			c7.2,3.3,13.5,7.9,18.5,13.8c5.1,5.8,9,12.8,11.7,20.9c2.7,8,4.1,16.8,4.1,26.2v3.9c0,9.4-1.4,18.2-4.1,26.1
			c-2.7,8-6.7,15-11.7,20.9c-5.1,5.9-11.3,10.5-18.5,13.7C1174.7,253,1166.5,254.6,1157.7,254.6z M1157.5,123.6
			c-8.1,0-15.6,1.5-22.2,4.6c-6.6,3.1-12.4,7.3-17,12.7c-4.7,5.4-8.4,12-11,19.4c-2.6,7.5-3.9,15.9-3.9,24.8v3.9
			c0,8.9,1.3,17.2,3.9,24.8c2.6,7.5,6.3,14,11,19.4s10.5,9.6,17.1,12.7c6.6,3,14.1,4.5,22.4,4.5c8.2,0,15.7-1.5,22.4-4.5
			c6.6-3,12.3-7.3,17-12.7s8.4-11.9,10.9-19.4c2.6-7.5,3.9-15.9,3.9-24.8v-3.9c0-8.9-1.3-17.2-3.9-24.8c-2.5-7.5-6.2-14-10.9-19.4
			c-4.7-5.4-10.4-9.7-17.1-12.7C1173.3,125.1,1165.8,123.6,1157.5,123.6z M1157.7,242.8c-7.2,0-13.6-1.5-19.2-4.5
			c-5.5-2.9-10.3-6.9-14-11.9c-3.7-4.9-6.6-10.7-8.5-17.2c-1.9-6.4-2.9-13.3-2.9-20.4v-3.9c0-6.9,1-13.7,2.9-20.2s4.8-12.3,8.5-17.2
			c3.7-5,8.4-9,13.9-12s12-4.5,19.1-4.5c7.2,0,13.7,1.5,19.3,4.5c5.6,3,10.3,7,14.1,12c3.7,4.9,6.6,10.7,8.5,17.2
			c1.9,6.4,2.9,13.2,2.9,20.2v3.9c0,7.1-1,14-2.9,20.4c-1.9,6.5-4.8,12.3-8.5,17.2c-3.8,4.9-8.4,8.9-14,11.9
			S1164.9,242.8,1157.7,242.8z M1157.5,135.5c-6.4,0-12.1,1.3-17,4c-5,2.7-9.2,6.3-12.6,10.8s-6,9.9-7.8,15.9s-2.7,12.4-2.7,19v3.9
			c0,6.7,0.9,13.1,2.7,19.2c1.8,6,4.4,11.3,7.8,15.8c3.4,4.4,7.6,8,12.6,10.7c5,2.6,10.8,4,17.2,4c6.5,0,12.2-1.3,17.2-4
			c5-2.6,9.2-6.2,12.6-10.7s6-9.8,7.8-15.8s2.7-12.5,2.7-19.2v-3.9c0-6.5-0.9-12.9-2.7-19c-1.8-6-4.4-11.3-7.8-15.9
			c-3.4-4.5-7.6-8.1-12.7-10.8C1169.8,136.9,1163.9,135.5,1157.5,135.5z"/>
	</g>
	<g>
		<path d="M1421.6,252.3h-18.3v-84.6c0-6.4-0.7-11.8-2.1-16c-1.4-4-3.3-7.3-5.8-9.6c-2.4-2.3-5.4-4-8.8-4.9c-3.6-1-7.6-1.4-11.9-1.4
			c-5.6,0.1-10.5,1.1-14.6,3c-4.2,1.9-7.8,4.4-10.6,7.4c-2.9,3-5.2,6.3-6.8,9.9c-1.6,3.6-2.6,7.2-2.9,10.6v85.7h-18.3v-85.6
			c0-6-0.7-11.1-2.1-15.1c-1.4-3.9-3.3-7-5.8-9.3s-5.4-4-8.9-5c-3.6-1-7.6-1.6-12-1.6c-5,0-9.4,0.8-13.2,2.3
			c-3.8,1.6-7.1,3.7-9.9,6.3s-5.2,5.7-7,9s-3.3,6.8-4.4,10.4v88.5H1240V121.7h17.7l0.4,16.1c1.2-1.5,2.4-2.9,3.8-4.3
			c2.9-3,6.2-5.5,9.7-7.6c3.6-2.1,7.5-3.7,11.7-4.8c4.2-1.1,8.8-1.7,13.6-1.7c9.6,0,18,2.1,24.9,6.1c5.9,3.5,10.5,8.8,13.5,15.8
			c1.6-2.3,3.3-4.4,5.3-6.5c3-3.1,6.4-5.9,10.1-8.1c3.8-2.3,8-4.1,12.5-5.4s9.5-2,14.7-2c6.7,0,12.9,0.9,18.2,2.7
			c5.4,1.9,10.1,4.8,13.9,8.9c3.7,4,6.6,9.1,8.6,15.2c1.9,6,2.9,13.3,2.9,21.7v84.5H1421.6z M1407.6,248h9.7v-80.2
			c0-7.9-0.9-14.8-2.7-20.4c-1.8-5.5-4.3-10.1-7.6-13.6c-3.3-3.5-7.4-6.1-12.2-7.7c-4.9-1.7-10.6-2.5-16.8-2.5
			c-4.8,0-9.4,0.6-13.5,1.8c-4.2,1.2-8,2.8-11.5,4.9c-3.4,2.1-6.5,4.6-9.2,7.4c-2.7,2.9-5.1,6-7,9.4l-2.4,4.1l-1.5-4.6
			c-2.6-8-7.1-13.9-13.2-17.5c-6.3-3.7-13.9-5.5-22.7-5.5c-4.5,0-8.7,0.5-12.5,1.6c-3.9,1-7.5,2.5-10.7,4.4
			c-3.2,1.9-6.2,4.2-8.8,6.9c-2.6,2.7-5,5.8-7,9l-3.8,6.2l-0.6-25.7h-9.2v122h9.7v-84.8l0.1-0.3c1.2-3.9,2.8-7.8,4.8-11.5
			c2-3.8,4.7-7.2,7.8-10.1c3.2-3,6.9-5.4,11.2-7.1c4.3-1.8,9.3-2.7,14.8-2.7c4.8,0,9.2,0.6,13.1,1.7c4.1,1.2,7.7,3.2,10.6,6
			c3,2.8,5.3,6.5,6.9,11c1.6,4.4,2.3,10,2.3,16.5V248h9.7v-81.7c0.3-3.9,1.4-7.9,3.2-12c1.8-4.1,4.4-7.9,7.6-11.2s7.2-6.1,11.9-8.3
			c4.7-2.2,10.2-3.3,16.4-3.4c4.7,0,9.1,0.5,13,1.6c4.1,1.1,7.7,3.1,10.7,6c3,2.8,5.3,6.7,6.9,11.4c1.5,4.6,2.3,10.4,2.3,17.3V248
			H1407.6z"/>
	</g>
</g>
</svg>
