<svg xmlns="http://www.w3.org/2000/svg" width="39.156" height="25.219" viewBox="0 0 39.156 25.219"><defs><style>.a{fill:#fffffe;}</style></defs><path class="a" d="M1337.458,489.127h-3.067v3.484h-4.317v-3.484h-3.484v-4.317h3.484v-3.484h4.317v3.484h3.484v4.317Z" transform="translate(-1298.719 -474.356)"/><path class="a" d="M1213.872,475.214a12.61,12.61,0,1,1,0-25.219,12.279,12.279,0,0,1,4.631.872,11.539,11.539,0,0,1,3.85,2.56l.3.3-.31.294-3.31,3.135-.3.279-.286-.286a5.994,5.994,0,0,0-2.048-1.337,6.875,6.875,0,0,0-2.535-.457,6.947,6.947,0,0,0-4.991,2.114,7.372,7.372,0,0,0,0,10.269,7.256,7.256,0,0,0,9.245.829,6.24,6.24,0,0,0,2.178-3.108h-6.848v-5.014h12.238l.079.316a8.1,8.1,0,0,1,.187,2.191h0a12.364,12.364,0,0,1-3.343,8.826,11.955,11.955,0,0,1-8.744,3.435Z" transform="translate(-1201.262 -449.995)"/></svg>