<?xml version="1.0" encoding="utf-8"?>
<!-- Generator: Adobe Illustrator 22.1.0, SVG Export Plug-In . SVG Version: 6.00 Build 0)  -->
<svg version="1.1" id="Layer_1" xmlns="http://www.w3.org/2000/svg" xmlns:xlink="http://www.w3.org/1999/xlink" x="0px" y="0px"
	 viewBox="0 0 50 50" style="enable-background:new 0 0 50 50;" xml:space="preserve">
<style type="text/css">
	.st0{fill:#FFFFFE;}
</style>
<path class="st0" d="M49.5,27.8h-3.9v4.4H40v-4.4h-4.4v-5.5H40v-4.4h5.5v4.4H50v5.5H49.5z"/>
<path class="st0" d="M16.1,41.1C7.2,41.2,0,34-0.1,25.1C-0.2,16.3,6.9,9,15.8,8.9c0.1,0,0.2,0,0.3,0c2,0,4,0.4,5.9,1.1
	c1.8,0.7,3.5,1.9,4.9,3.3l0.4,0.4L26.9,14l-4.2,4l-0.4,0.4L22,18c-0.7-0.7-1.6-1.3-2.6-1.7c-1-0.4-2.1-0.6-3.2-0.6
	c-2.4,0-4.7,1-6.4,2.7c-3.5,3.6-3.5,9.5,0,13.1c3.2,3.2,8.1,3.6,11.8,1.1c1.3-1,2.3-2.4,2.8-4h-8.7v-6.4h15.6l0.1,0.4
	c0.2,0.9,0.3,1.9,0.2,2.8l0,0c0.1,4.2-1.4,8.2-4.3,11.3C24.3,39.6,20.3,41.2,16.1,41.1L16.1,41.1z"/>
</svg>
