<svg xmlns="http://www.w3.org/2000/svg" width="21.268" height="21.268" viewBox="0 0 21.268 21.268"><g transform="translate(0 0)"><path d="M104.751,355.667c2.84,0,3.176.011,4.3.062a5.872,5.872,0,0,1,1.974.366,3.525,3.525,0,0,1,2.019,2.019,5.883,5.883,0,0,1,.366,1.974c.051,1.121.061,1.458.061,4.3s-.011,3.176-.061,4.3a5.883,5.883,0,0,1-.366,1.974,3.519,3.519,0,0,1-2.019,2.019,5.888,5.888,0,0,1-1.974.366c-1.121.051-1.457.062-4.3.062s-3.176-.011-4.3-.062a5.883,5.883,0,0,1-1.974-.366,3.519,3.519,0,0,1-2.019-2.019,5.883,5.883,0,0,1-.366-1.974c-.051-1.121-.061-1.457-.061-4.3s.011-3.176.061-4.3a5.883,5.883,0,0,1,.366-1.974A3.525,3.525,0,0,1,98.48,356.1a5.867,5.867,0,0,1,1.974-.366c1.121-.052,1.457-.062,4.3-.062m0-1.916c-2.888,0-3.25.012-4.385.064a7.787,7.787,0,0,0-2.581.495,5.432,5.432,0,0,0-3.11,3.11A7.792,7.792,0,0,0,94.181,360c-.052,1.134-.064,1.5-.064,4.385s.012,3.25.064,4.385a7.788,7.788,0,0,0,.495,2.581,5.436,5.436,0,0,0,3.11,3.11,7.813,7.813,0,0,0,2.581.494c1.134.052,1.5.064,4.385.064s3.25-.012,4.385-.064a7.813,7.813,0,0,0,2.581-.494,5.441,5.441,0,0,0,3.11-3.11,7.811,7.811,0,0,0,.494-2.581c.052-1.134.064-1.5.064-4.385s-.012-3.25-.064-4.385a7.815,7.815,0,0,0-.494-2.581,5.436,5.436,0,0,0-3.11-3.11,7.787,7.787,0,0,0-2.581-.495c-1.134-.052-1.5-.064-4.385-.064" transform="translate(-94.117 -353.751)"/><path d="M105.9,360.076a5.461,5.461,0,1,0,5.461,5.461,5.462,5.462,0,0,0-5.461-5.461m0,9.006a3.545,3.545,0,1,1,3.545-3.545,3.544,3.544,0,0,1-3.545,3.545" transform="translate(-95.269 -354.903)"/><path d="M115.052,359.529a1.276,1.276,0,1,1-1.276-1.277,1.277,1.277,0,0,1,1.276,1.277" transform="translate(-97.465 -354.571)"/></g></svg>