<svg xmlns="http://www.w3.org/2000/svg" width="19.442" height="19.452" viewBox="0 0 19.442 19.452"><g transform="translate(0 0)"><rect width="4.014" height="12.967" transform="translate(0.386 6.484)"/><path d="M215.02,409.232a2.393,2.393,0,1,0-2.374-2.393A2.384,2.384,0,0,0,215.02,409.232Z" transform="translate(-212.646 -404.446)"/><path d="M225.014,418.446c0-1.823.838-2.909,2.445-2.909,1.475,0,2.185,1.043,2.185,2.909v6.807h3.995v-8.211c0-3.474-1.969-5.153-4.718-5.153a4.521,4.521,0,0,0-3.908,2.143v-1.747h-3.851v12.968h3.851Z" transform="translate(-214.197 -405.802)"/></g></svg>