<svg xmlns="http://www.w3.org/2000/svg" width="20.667" height="16.796" viewBox="0 0 20.667 16.796"><g transform="translate(0 0)"><path d="M153.515,371.376a12.059,12.059,0,0,0,18.551-10.709,8.587,8.587,0,0,0,2.116-2.2,8.43,8.43,0,0,1-2.435.667,4.244,4.244,0,0,0,1.864-2.346,8.49,8.49,0,0,1-2.692,1.03,4.243,4.243,0,0,0-7.225,3.868,12.031,12.031,0,0,1-8.739-4.431,4.245,4.245,0,0,0,1.312,5.662,4.226,4.226,0,0,1-1.921-.531,4.245,4.245,0,0,0,3.4,4.211,4.23,4.23,0,0,1-1.914.072,4.241,4.241,0,0,0,3.96,2.945A8.524,8.524,0,0,1,153.515,371.376Z" transform="translate(-153.515 -356.485)"/></g></svg>