<?xml version="1.0" encoding="utf-8"?>
<!-- Generator: Adobe Illustrator 22.1.0, SVG Export Plug-In . SVG Version: 6.00 Build 0)  -->
<svg version="1.1" id="Layer_1" xmlns="http://www.w3.org/2000/svg" xmlns:xlink="http://www.w3.org/1999/xlink" x="0px" y="0px"
	 viewBox="0 0 1240 1240" style="enable-background:new 0 0 1240 1240;" xml:space="preserve">
<style type="text/css">
	.st0{fill:none;}
	.st1{fill:#FFB317;}
</style>
<g>
	<g transform="translate(13.137 127.28) rotate(-90)">
		<g transform="translate(0)">
			<g>
				<path class="st0" d="M-953.2,954.9h50l221.7-536.3l219.8,536.3h50.5l-271.3-658.9L-953.2,954.9z"/>
				<path class="st1" d="M-410.7,954.9l-271.3-658.9l-271.3,658.9h50l221.7-536.3l219.8,536.3H-410.7 M-377,977.5h-33.7h-50.5h-15.4
					l-5.8-13.9l-199.1-485.8L-882,963.5l-5.8,13.9h-14.9h-50h-33.7l13-31.3l271.3-658.9l21.2-51l21.2,51l271.3,658.9L-377,977.5z"/>
			</g>
		</g>
	</g>
	<polygon class="st1" points="939.9,410.6 281,139.3 249.7,126.3 249.7,160 249.7,210 249.7,225.4 263.7,231.2 749.4,431.7 
		263.7,630.9 249.7,636.6 249.7,652 249.7,702.5 249.7,736.2 281,723.7 939.9,452.4 990.4,431.3 	"/>
</g>
</svg>
